<svg height="1122" width="820" xmlns="http://www.w3.org/2000/svg">
 <!-- Created with Image Occlusion Enhanced -->
 <g>
  <title>Labels</title>
 </g>
 <g>
  <title>Masks</title>
  <text fill="#000000" font-family="'Arial', 'Helvetica LT Std', Arial, sans-serif" font-size="24" id="391d3556364542c095beab4f3a09daab-aa-1" stroke-width="0" text-anchor="middle" x="130" xml:space="preserve" y="124">1 - Molekularschicht</text>
  <path d="m361.5733,192.48593l10.08469,-10.11824l-19.49652,0l-19.49652,0l0,-6.26315l0,-6.26387l19.27332,0c10.59903,0 19.2717,-0.31743 19.2717,-0.70563c0,-0.38776 -4.21988,-4.94125 -9.37625,-10.11823l-9.37625,-9.41264l8.6662,0l8.66782,0l13.23706,13.26292l13.23706,13.26251l-13.26294,13.23709l-13.26132,13.23746l-9.12717,0l-9.12393,0l10.08307,-10.11823l0,0z" fill="#FFEBA2" id="391d3556364542c095beab4f3a09daab-aa-2" stroke="#2D2D2D" stroke-width="3"/>
  <text fill="#000000" font-family="'Arial', 'Helvetica LT Std', Arial, sans-serif" font-size="24" id="391d3556364542c095beab4f3a09daab-aa-3" stroke-width="0" text-anchor="middle" x="173" xml:space="preserve" y="183">2 - äußere Körnerzellschicht</text>
  <path d="m276.5733,132.48593l10.08469,-10.11824l-19.49652,0l-19.49652,0l0,-6.26315l0,-6.26387l19.27332,0c10.59903,0 19.2717,-0.31743 19.2717,-0.70563c0,-0.38776 -4.21988,-4.94125 -9.37625,-10.11823l-9.37625,-9.41265l8.6662,0l8.66782,0l13.23706,13.26295l13.23706,13.2625l-13.26294,13.23709l-13.26132,13.23746l-9.12717,0l-9.12393,0l10.08307,-10.11823l0,0z" fill="#FFEBA2" id="391d3556364542c095beab4f3a09daab-aa-4" stroke="#2D2D2D" stroke-width="3"/>
  <text fill="#000000" font-family="'Arial', 'Helvetica LT Std', Arial, sans-serif" font-size="24" id="391d3556364542c095beab4f3a09daab-aa-5" stroke-width="0" text-anchor="middle" x="194" xml:space="preserve" y="268">3 - äußere Pyramidenzellschicht</text>
  <path d="m404.5733,277.48593l10.08469,-10.11823l-19.49652,0l-19.49652,0l0,-6.26315l0,-6.26389l19.27332,0c10.59903,0 19.2717,-0.31743 19.2717,-0.70563c0,-0.38776 -4.21988,-4.94125 -9.37625,-10.11823l-9.37625,-9.41264l8.6662,0l8.66782,0l13.23706,13.26292l13.23706,13.26251l-13.26294,13.23709l-13.26132,13.23746l-9.12717,0l-9.12393,0l10.08307,-10.11823l0,0z" fill="#FFEBA2" id="391d3556364542c095beab4f3a09daab-aa-6" stroke="#2D2D2D" stroke-width="3"/>
  <text fill="#000000" font-family="'Arial', 'Helvetica LT Std', Arial, sans-serif" font-size="24" id="391d3556364542c095beab4f3a09daab-aa-7" stroke-width="0" text-anchor="middle" x="192" xml:space="preserve" y="588">5 - innere Pyramidenzellschicht</text>
  <path d="m401.5733,597.48596l10.08469,-10.11829l-19.49652,0l-19.49652,0l0,-6.26312l0,-6.26385l19.27332,0c10.59903,0 19.2717,-0.31744 19.2717,-0.70569c0,-0.3877 -4.21988,-4.94122 -9.37625,-10.11816l-9.37625,-9.41266l8.6662,0l8.66782,0l13.23706,13.26294l13.23706,13.26251l-13.26294,13.23706l-13.26132,13.23749l-9.12717,0l-9.12393,0l10.08307,-10.11823l0,0z" fill="#FFEBA2" id="391d3556364542c095beab4f3a09daab-aa-8" stroke="#2D2D2D" stroke-width="3"/>
  <text fill="#000000" font-family="'Arial', 'Helvetica LT Std', Arial, sans-serif" font-size="24" id="391d3556364542c095beab4f3a09daab-aa-9" stroke-width="0" text-anchor="middle" x="173" xml:space="preserve" y="426">4 - innere Körnerzellschicht</text>
  <path d="m367.5733,437.48593l10.08469,-10.11823l-19.49652,0l-19.49652,0l0,-6.26315l0,-6.26389l19.27332,0c10.59903,0 19.2717,-0.31741 19.2717,-0.70563c0,-0.38776 -4.21988,-4.94125 -9.37625,-10.11823l-9.37625,-9.41263l8.6662,0l8.66782,0l13.23706,13.26291l13.23706,13.26251l-13.26294,13.23709l-13.26132,13.23746l-9.12717,0l-9.12393,0l10.08307,-10.11823l0,0z" fill="#FFEBA2" id="391d3556364542c095beab4f3a09daab-aa-10" stroke="#2D2D2D" stroke-width="3"/>
  <text fill="#000000" font-family="'Arial', 'Helvetica LT Std', Arial, sans-serif" font-size="24" id="391d3556364542c095beab4f3a09daab-aa-11" stroke-width="0" text-anchor="middle" x="152" xml:space="preserve" y="825">6 - multiforme Schicht</text>
  <path class="qshape" d="m306.5733,833.48596l10.08469,-10.11829l-19.49652,0l-19.49652,0l0,-6.26312l0,-6.26385l19.27332,0c10.59903,0 19.2717,-0.31744 19.2717,-0.70569c0,-0.3877 -4.21988,-4.94122 -9.37625,-10.11816l-9.37625,-9.41266l8.6662,0l8.66782,0l13.23706,13.26294l13.23706,13.26251l-13.26294,13.23706l-13.26132,13.23749l-9.12717,0l-9.12393,0l10.08307,-10.11823l0,0z" fill="#FF7E7E" id="391d3556364542c095beab4f3a09daab-aa-12" stroke="#2D2D2D" stroke-width="3"/>
  <line fill="#FFEBA2" id="391d3556364542c095beab4f3a09daab-aa-13" stroke="#2D2D2D" stroke-dasharray="null" stroke-linecap="null" stroke-linejoin="null" stroke-width="3" x1="6" x2="802" y1="728" y2="724"/>
  <line fill="#FFEBA2" id="391d3556364542c095beab4f3a09daab-aa-14" stroke="#2D2D2D" stroke-dasharray="null" stroke-linecap="null" stroke-linejoin="null" stroke-width="3" x1="2" x2="816" y1="476" y2="472"/>
  <line fill="#FFEBA2" id="391d3556364542c095beab4f3a09daab-aa-15" stroke="#2D2D2D" stroke-dasharray="null" stroke-linecap="null" stroke-linejoin="null" stroke-width="3" x1="2" x2="812" y1="382" y2="378"/>
  <line fill="#FFEBA2" id="391d3556364542c095beab4f3a09daab-aa-16" stroke="#2D2D2D" stroke-dasharray="null" stroke-linecap="null" stroke-linejoin="null" stroke-width="3" x1="2" x2="818" y1="146" y2="148"/>
  <line fill="#FFEBA2" id="391d3556364542c095beab4f3a09daab-aa-17" stroke="#2D2D2D" stroke-dasharray="null" stroke-linecap="null" stroke-linejoin="null" stroke-width="3" x1="-2" x2="818" y1="228" y2="224"/>
  <g id="391d3556364542c095beab4f3a09daab-aa-18">
   <rect fill="#FFEBA2" height="36" stroke="#2D2D2D" stroke-dasharray="null" stroke-linecap="null" stroke-linejoin="null" width="196" x="46" y="96"/>
   <rect fill="#FFEBA2" height="34" stroke="#2D2D2D" stroke-dasharray="null" stroke-linecap="null" stroke-linejoin="null" width="276.00002" x="54" y="162"/>
   <rect fill="#000000" height="40" stroke="#2D2D2D" stroke-dasharray="null" stroke-linecap="null" stroke-linejoin="null" width="318" x="50" y="242"/>
   <rect fill="#000000" height="36" stroke="#2D2D2D" stroke-dasharray="null" stroke-linecap="null" stroke-linejoin="null" width="286" x="46" y="400"/>
   <rect fill="#000000" height="36" stroke="#2D2D2D" stroke-dasharray="null" stroke-linecap="null" stroke-linejoin="null" width="312" x="52" y="564"/>
   <rect fill="#000000" height="28" stroke="#2D2D2D" stroke-dasharray="null" stroke-linecap="null" stroke-linejoin="null" width="198" x="68" y="806"/>
  </g>
 </g>
</svg>