<svg height="900" width="658" xmlns="http://www.w3.org/2000/svg">
 <!-- Created with Image Occlusion Enhanced -->
 <g>
  <title>Labels</title>
 </g>
 <g>
  <title>Masks</title>
  
  
  <g class="qshape" id="63f1170d14814683a0f4efebf4f8536b-oa-3">
   <rect class="qshape" fill="#FF7E7E" height="34" stroke="#2D2D2D" stroke-dasharray="null" stroke-linecap="null" stroke-linejoin="null" width="105" x="442" y="555">
    <animate attributeName="opacity" begin="indefinite" class="qshape" dur="0.2" fill="#FF7E7E" to="1"/>
   </rect>
   <rect class="qshape" fill="#FF7E7E" height="18" stroke="#2D2D2D" stroke-dasharray="null" stroke-linecap="null" stroke-linejoin="null" width="31" x="584" y="505">
    <animate attributeName="opacity" begin="indefinite" class="qshape" dur="0.2" fill="#FF7E7E" to="1"/>
   </rect>
   <rect class="qshape" fill="#FF7E7E" height="21" stroke="#2D2D2D" stroke-dasharray="null" stroke-linecap="null" stroke-linejoin="null" width="65" x="590" y="553">
    <animate attributeName="opacity" begin="indefinite" class="qshape" dur="0.2" fill="#FF7E7E" to="1"/>
   </rect>
   <rect class="qshape" fill="#FF7E7E" height="17" stroke="#2D2D2D" stroke-dasharray="null" stroke-linecap="null" stroke-linejoin="null" width="38" x="566" y="587">
    <animate attributeName="opacity" begin="indefinite" class="qshape" dur="0.2" fill="#FF7E7E" to="1"/>
   </rect>
   <rect class="qshape" fill="#FF7E7E" height="18" stroke="#2D2D2D" stroke-dasharray="null" stroke-linecap="null" stroke-linejoin="null" width="34" x="573" y="633">
    <animate attributeName="opacity" begin="indefinite" class="qshape" dur="0.2" fill="#FF7E7E" to="1"/>
   </rect>
   <rect class="qshape" fill="#FF7E7E" height="19" stroke="#2D2D2D" stroke-dasharray="null" stroke-linecap="null" stroke-linejoin="null" width="107" x="395" y="824">
    <animate attributeName="opacity" begin="indefinite" class="qshape" dur="0.2" fill="#FF7E7E" to="1"/>
   </rect>
   <path class="qshape" d="m391,662l0,41l28,26l1,90l67,0c0,0 -2,-64 -1,-64c1,0 31,-36 31,-36c0,0 12,-47 12,-47c0,0 -69,-13 -69,-13c0,0 -69,3 -69,3z" fill="#FF7E7E" stroke="#2D2D2D" stroke-dasharray="null" stroke-linecap="null" stroke-linejoin="null" stroke-width="null">
    <animate attributeName="opacity" begin="indefinite" class="qshape" dur="0.2" fill="#FF7E7E" to="1"/>
   </path>
  </g>
  
  
 </g>
</svg>